<svg width="435" height="75" viewBox="0 0 435 75" fill="none" xmlns="http://www.w3.org/2000/svg">
<g clip-path="url(#clip0_36_2)">
<mask id="mask0_36_2" style="mask-type:luminance" maskUnits="userSpaceOnUse" x="-968" y="-803" width="2366" height="1675">
<path d="M-967.815 -802.436H1397.19V871.004H-967.815V-802.436Z" fill="white"/>
</mask>
<g mask="url(#mask0_36_2)">
<path d="M75.3875 41.2725C76.2289 38.3799 76.6546 35.3821 76.6516 32.3695C76.6516 14.493 62.1675 0.00131088 44.3125 0.00131088C26.4434 0.00131088 11.9622 14.493 11.9622 32.3695C11.9622 35.4449 12.3835 38.4163 13.1841 41.2275L75.3875 41.2725Z" fill="#ED1A2A"/>
<path d="M88.8433 44.4352H0.000732422V50.8672H47.4924L18.5496 55.6266L18.6199 61.1731L39.6633 62.5365L31.5982 64.3047L31.5224 70.5343L55.7907 75.0013L57.656 68.8055L48.8802 67.6107L67.5302 64.0461V57.8896L50.3971 56.9394L88.8433 50.6901V44.4352Z" fill="#ED1A2A"/>
<path d="M213.067 27.2054C213.067 27.2054 206.876 27.003 206.876 21.3412V15.8594L216.891 15.8538V11.4627H193.24C192.665 11.4913 192.125 11.7443 191.734 12.1674C191.343 12.5905 191.134 13.15 191.151 13.7258C191.168 14.3016 191.41 14.8478 191.824 15.2472C192.239 15.6466 192.794 15.8674 193.37 15.8622H200.617V21.3412C200.617 21.3412 200.679 27.301 192.667 27.301C192.083 27.301 191.523 27.5332 191.11 27.9465C190.697 28.3598 190.465 28.9204 190.465 29.5049C190.465 30.0895 190.697 30.6501 191.11 31.0634C191.523 31.4767 192.083 31.7089 192.667 31.7089C192.667 31.7089 201.946 31.5599 203.741 26.9692C205.418 30.8909 210.604 31.5684 213.286 31.5684H217.205V27.2054H213.067Z" fill="white"/>
<path d="M227.293 13.1493C227.315 12.7272 227.251 12.305 227.105 11.9085C226.958 11.512 226.733 11.1494 226.442 10.8428C226.151 10.5363 225.801 10.2922 225.413 10.1253C225.025 9.95851 224.607 9.87248 224.185 9.87248C223.762 9.87248 223.344 9.95851 222.956 10.1253C222.568 10.2922 222.218 10.5363 221.927 10.8428C221.636 11.1494 221.411 11.512 221.265 11.9085C221.118 12.305 221.054 12.7272 221.076 13.1493L221.051 41.0195H227.31L227.293 13.1493Z" fill="white"/>
<path d="M416.589 27.1716C416.589 27.1716 410.403 26.9692 410.403 21.3047V20.5091H410.442L410.431 13.706C410.383 12.9122 410.035 12.1667 409.456 11.6215C408.878 11.0764 408.113 10.7728 407.318 10.7728C406.524 10.7728 405.759 11.0764 405.181 11.6215C404.602 12.1667 404.254 12.9122 404.206 13.706L404.2 15.1285H404.138V21.3047C404.138 21.3047 404.195 27.2672 396.183 27.2672C395.599 27.2672 395.039 27.4994 394.626 27.9127C394.213 28.3261 393.98 28.8867 393.98 29.4712C393.98 30.0557 394.213 30.6163 394.626 31.0296C395.039 31.443 395.599 31.6752 396.183 31.6752C396.183 31.6752 405.175 31.6471 406.964 27.0564C408.644 30.978 414.122 31.5374 416.811 31.5374H420.729V27.1716H416.589Z" fill="white"/>
<path d="M432.699 16.2614H430.219L430.213 13.0369C430.235 12.6144 430.171 12.1919 430.024 11.795C429.878 11.3981 429.652 11.0352 429.361 10.7284C429.07 10.4216 428.72 10.1773 428.331 10.0103C427.943 9.84332 427.525 9.75721 427.102 9.75721C426.679 9.75721 426.261 9.84332 425.872 10.0103C425.484 10.1773 425.133 10.4216 424.842 10.7284C424.551 11.0352 424.326 11.3981 424.179 11.795C424.033 12.1919 423.969 12.6144 423.991 13.0369L423.965 41.014H430.224V20.6581H432.842C434.045 20.5934 435 19.6376 435 18.4625C435 17.2453 433.974 16.2614 432.699 16.2614Z" fill="white"/>
<path d="M308.944 16.2079L306.464 16.2107V12.9301C306.422 12.1316 306.076 11.3796 305.497 10.8291C304.917 10.2787 304.149 9.9718 303.35 9.9718C302.551 9.9718 301.782 10.2787 301.203 10.8291C300.624 11.3796 300.277 12.1316 300.236 12.9301C300.236 12.9441 300.225 18.8645 300.225 22.4909L278.881 22.4853L278.869 13.6638C278.869 12.8384 278.542 12.0469 277.959 11.4633C277.375 10.8797 276.584 10.5518 275.76 10.5518C274.935 10.5518 274.144 10.8797 273.561 11.4633C272.978 12.0469 272.65 12.8384 272.65 13.6638L272.616 23.5929H272.625V23.6998C272.625 25.3612 273.922 26.7162 275.56 26.8061V26.8933L279.914 26.8905C279.923 31.1241 279.928 37.9244 279.928 37.9357C279.928 39.5437 281.142 40.8649 282.687 41.0364L282.693 41.0927L307.113 41.087V36.6959H286.151C286.162 34.4217 286.162 30.0446 286.173 26.8905L302.051 26.8877V26.8286H306.472C306.472 26.8286 306.472 23.4158 306.464 20.6018L309.085 20.6103C310.29 20.5428 311.245 19.587 311.245 18.4119C311.245 17.1975 310.214 16.2079 308.944 16.2079Z" fill="white"/>
<path d="M267.441 41.3597L267.427 13.1015C267.393 12.2983 267.05 11.5393 266.47 10.9831C265.89 10.4268 265.118 10.1163 264.315 10.1163C263.512 10.1163 262.739 10.4268 262.159 10.9831C261.579 11.5393 261.236 12.2983 261.202 13.1015V14.5858H254.834C253.62 14.6477 252.668 15.6035 252.668 16.7786C252.668 17.993 253.699 18.9797 254.963 18.9797L261.194 18.9769V21.7825L254.834 21.7769C253.62 21.85 252.668 22.803 252.668 23.978C252.668 25.1953 253.699 26.182 254.963 26.182L261.188 26.1792V30.1599H237.353C236.142 30.2245 235.189 31.1831 235.189 32.3526C235.189 33.5727 236.218 34.5566 237.49 34.5566L261.188 34.551C261.18 38.3601 261.18 41.3597 261.18 41.3597H267.441Z" fill="white"/>
<path d="M241.839 24.2704C239.347 24.2704 237.33 22.2042 237.33 19.6601C237.33 17.1187 239.347 15.0525 241.839 15.0525C244.333 15.0525 246.353 17.1187 246.353 19.6601C246.353 22.2042 244.333 24.2704 241.839 24.2704ZM241.934 10.667C236.353 10.667 231.824 14.6955 231.824 19.6601C231.824 24.6274 236.353 28.6475 241.934 28.6475C247.522 28.6475 252.039 24.6274 252.039 19.6601C252.039 14.6955 247.522 10.667 241.934 10.667Z" fill="white"/>
<path d="M338.651 37.8992C336.067 37.8992 333.971 35.9341 333.971 33.5165C333.971 31.1017 336.067 29.1338 338.651 29.1338C341.238 29.1338 343.337 31.1017 343.337 33.5165C343.337 35.9341 341.238 37.8992 338.651 37.8992ZM350.82 16.1995L348.329 16.2023V13.0369C348.304 12.2274 347.966 11.4592 347.385 10.8951C346.804 10.3311 346.027 10.0157 345.217 10.0157C344.408 10.0157 343.631 10.3311 343.05 10.8951C342.469 11.4592 342.131 12.2274 342.106 13.0369C342.106 13.0566 342.101 20.7986 342.087 25.4287C340.567 24.9335 338.957 24.7847 337.373 24.9929C337.637 24.5347 337.786 24.0062 337.786 23.4355C337.786 23.3996 337.782 23.3638 337.775 23.3287H337.786L337.772 13.602C337.772 12.7759 337.444 11.9836 336.86 11.3995C336.276 10.8153 335.485 10.4871 334.659 10.4871C333.834 10.4871 333.042 10.8153 332.458 11.3995C331.875 11.9836 331.547 12.7759 331.547 13.602C331.547 13.6216 331.533 19.8484 331.533 22.2745C331.362 22.2385 331.188 22.2197 331.013 22.2183L320.06 22.2239V19.334H328.563C329.768 19.2693 330.724 18.3107 330.724 17.1356C330.724 15.9212 329.695 14.9373 328.428 14.9373L320.052 14.9401V13.6469C320.052 13.2377 319.971 12.8325 319.815 12.4543C319.659 12.0762 319.43 11.7325 319.14 11.443C318.851 11.1535 318.508 10.9238 318.131 10.7671C317.753 10.6103 317.348 10.5295 316.939 10.5293C316.53 10.5291 316.125 10.6096 315.747 10.766C315.369 10.9224 315.026 11.1518 314.737 11.441C314.447 11.7303 314.218 12.0737 314.061 12.4517C313.905 12.8297 313.824 13.2349 313.824 13.6441L313.798 23.3681H313.81C313.798 23.4046 313.798 23.4355 313.798 23.4749C313.798 25.1925 315.2 26.5897 316.919 26.5897L319.212 26.5981V26.6178H331.151C331.284 26.6144 331.418 26.5945 331.547 26.5588H333.038C330.631 28.1246 329.061 30.6547 329.061 33.5165C329.061 38.273 333.403 42.13 338.749 42.13C344.092 42.13 348.433 38.273 348.433 33.5165C348.433 33.0892 348.396 32.6619 348.32 32.2515L348.345 32.2571L348.34 20.599H350.961C352.157 20.5288 353.118 19.5729 353.118 18.4007C353.118 17.1834 352.082 16.1995 350.82 16.1995Z" fill="white"/>
<path d="M372.987 37.8683C370.319 37.8683 368.158 35.8189 368.158 33.2944C368.158 30.7672 370.319 28.7178 372.987 28.7178C375.645 28.7178 377.811 30.7672 377.811 33.2944C377.811 35.8189 375.645 37.8683 372.987 37.8683ZM392.019 24.6753H389.081C389.174 24.3886 389.216 24.0906 389.216 23.7757L389.247 14.4538H389.241V14.347C389.241 12.6855 387.938 11.3277 386.3 11.2378V11.1563C386.205 11.1563 374.788 11.1563 367.099 11.1619V11.1281L358.478 11.1253C357.267 11.1956 356.307 12.1514 356.307 13.3237C356.307 14.5409 357.34 15.5277 358.61 15.5277L360.54 15.5249V15.553H382.991L382.996 23.7757C382.996 24.0906 383.044 24.3886 383.131 24.6753H374.294C374.294 22.8424 374.285 20.6103 374.285 20.5934C374.285 19.7673 373.957 18.9751 373.374 18.3909C372.79 17.8068 371.998 17.4786 371.173 17.4786C370.347 17.4786 369.555 17.8068 368.972 18.3909C368.388 18.9751 368.06 19.7673 368.06 20.5934L368.052 24.6753H355.228C354.023 24.7428 353.068 25.6986 353.068 26.8709C353.068 28.0881 354.096 29.0748 355.371 29.0748L364.63 29.072C363.826 30.3337 363.396 31.798 363.391 33.2944C363.391 38.051 367.726 41.9108 373.083 41.9108C378.423 41.9108 382.763 38.051 382.763 33.2944C382.758 31.7959 382.325 30.3301 381.516 29.0692L392.019 29.0664V24.6753Z" fill="white"/>
<path d="M188.344 25.7436V21.448H186.012V15.3899C186.012 13.141 184.186 11.3165 181.931 11.3165L153.432 11.3109C153.15 11.3105 152.871 11.3657 152.611 11.4734C152.351 11.581 152.114 11.739 151.915 11.9383C151.716 12.1375 151.558 12.3741 151.451 12.6345C151.343 12.8949 151.288 13.174 151.288 13.4558C151.288 14.6478 152.238 15.612 153.432 15.612H179.928V21.448H151.611C151.042 21.448 150.496 21.6743 150.094 22.0771C149.691 22.4799 149.465 23.0262 149.465 23.5958C149.465 24.1654 149.691 24.7117 150.094 25.1145C150.496 25.5173 151.042 25.7436 151.611 25.7436H165.767V29.5977H153.432C153.15 29.5977 152.871 29.6534 152.61 29.7615C152.35 29.8697 152.113 30.0282 151.914 30.2279C151.715 30.4277 151.557 30.6648 151.45 30.9257C151.342 31.1866 151.287 31.4661 151.288 31.7483C151.287 32.0305 151.341 32.3102 151.448 32.5713C151.555 32.8324 151.713 33.0696 151.913 33.2693C152.112 33.469 152.349 33.6272 152.609 33.7348C152.87 33.8423 153.15 33.8972 153.432 33.896H179.928V41.2923H186.018L186.012 33.6796C186.012 31.4278 184.186 29.5977 181.931 29.5977H172.09V25.7436H188.344Z" fill="white"/>
<path d="M119.809 27.3459C117.244 27.3459 115.159 25.0632 115.159 22.2464C115.159 19.4324 117.244 17.144 119.809 17.144C122.368 17.144 124.444 19.4324 124.444 22.2464C124.444 25.0632 122.368 27.3459 119.809 27.3459ZM145.892 21.4508H143.17L143.195 13.0509C143.143 12.2007 142.768 11.4025 142.148 10.8189C141.528 10.2354 140.709 9.91066 139.858 9.91083C139.004 9.91092 138.182 10.2351 137.558 10.8179C136.934 11.4007 136.554 12.1987 136.495 13.0509V36.8871L116.856 36.873L116.865 33.5108C116.865 32.6675 116.539 31.9085 116.025 31.3153C117.238 31.7553 118.518 31.9808 119.809 31.9816C125.531 31.9816 130.177 27.6973 130.177 22.415C130.177 20.5653 129.596 18.8504 128.615 17.3858H134.178V12.8823H123.129C122.958 12.8823 122.865 12.8823 122.677 12.8766V11.8955C122.677 11.0885 122.356 10.3144 121.786 9.74373C121.216 9.17303 120.442 8.85242 119.636 8.85242C118.829 8.85242 118.056 9.17303 117.486 9.74373C116.915 10.3144 116.595 11.0885 116.595 11.8955V12.8823L108.03 12.8879C106.87 12.9582 105.948 13.9899 105.948 15.165C105.948 16.3822 106.937 17.3661 108.151 17.3661L111.002 17.3774C109.988 18.8622 109.442 20.6168 109.434 22.415C109.434 25.6226 111.151 28.4507 113.775 30.1852C113.679 30.1796 113.598 30.1599 113.513 30.1599C112.624 30.1591 111.771 30.5117 111.142 31.14C110.512 31.7684 110.158 32.6211 110.156 33.5108V38.4614C110.318 39.2063 110.73 39.8735 111.322 40.3525C111.915 40.8316 112.653 41.0937 113.415 41.0955C113.631 41.0955 113.842 41.073 114.041 41.0898H143.119L143.164 25.9178L145.892 25.9122C146.483 25.9122 147.05 25.6772 147.468 25.2588C147.886 24.8405 148.121 24.2731 148.121 23.6815C148.121 23.0899 147.886 22.5225 147.468 22.1042C147.05 21.6858 146.483 21.4508 145.892 21.4508Z" fill="white"/>
<path d="M108.182 70.4387V52.5314H111.96V60.9088L117.356 52.5089H121.786L115.949 61.3192L121.907 70.4387H117.379L111.96 61.7465V70.4387H108.182Z" fill="white"/>
<path d="M201.662 52.5173H205.516V70.4387H201.662V52.5173ZM243.693 52.5173H247.53V70.4387H243.693V52.5173ZM332.035 52.5173H335.881V70.4387H332.035V52.5173Z" fill="white"/>
<path d="M291.258 52.5173V58.6851H285.434V52.5173H281.591V70.4387H285.434V62.5336H291.258V70.4387H295.103V52.5173H291.258Z" fill="white"/>
<path d="M217.624 56.4699C216.52 55.9695 215.396 55.5478 214.053 55.4551C212.859 55.3679 211.233 55.5928 211.137 57.4454C210.986 60.6164 218.857 58.9044 218.677 65.4152C218.585 69.185 215.671 70.8323 212.152 70.8323C210.255 70.8323 209.289 70.6468 207.682 69.9018L207.806 65.969C209.011 66.6493 210.556 67.1272 211.924 67.1272C213.244 67.1272 214.753 66.9388 214.98 65.2718C215.464 61.814 207.39 64.0686 207.41 57.5213C207.415 53.4226 210.427 51.927 213.503 51.927C215.003 51.927 216.486 52.5511 217.753 52.9981L217.624 56.4699Z" fill="white"/>
<path d="M129.568 52.3544C128.35 52.3336 127.14 52.5559 126.008 53.0082C124.877 53.4604 123.847 54.1337 122.978 54.9887C122.109 55.8436 121.42 56.8631 120.949 57.9877C120.478 59.1123 120.236 60.3194 120.237 61.5387C120.237 62.7579 120.481 63.9648 120.952 65.089C121.424 66.2131 122.115 67.232 122.984 68.0861C123.853 68.9403 124.884 69.6126 126.016 70.0639C127.148 70.5151 128.358 70.7362 129.576 70.7143C131.981 70.6711 134.273 69.6844 135.959 67.9666C137.644 66.2488 138.587 63.9375 138.586 61.5302C138.585 59.123 137.639 56.8125 135.953 55.0963C134.266 53.38 131.973 52.3954 129.568 52.3544ZM135.186 61.533C135.186 62.2708 135.041 63.0013 134.759 63.6829C134.477 64.3646 134.063 64.9839 133.542 65.5056C133.02 66.0273 132.402 66.4411 131.72 66.7235C131.039 67.0058 130.309 67.1511 129.572 67.1511C128.835 67.1511 128.105 67.0058 127.424 66.7235C126.742 66.4411 126.124 66.0273 125.602 65.5056C125.081 64.9839 124.667 64.3646 124.385 63.6829C124.103 63.0013 123.958 62.2708 123.958 61.533C123.958 60.0429 124.549 58.6139 125.602 57.5603C126.655 56.5067 128.083 55.9148 129.572 55.9148C131.061 55.9148 132.489 56.5067 133.542 57.5603C134.595 58.6139 135.186 60.0429 135.186 61.533Z" fill="white"/>
<path d="M395.388 52.3544C392.955 52.3563 390.622 53.3252 388.903 55.0481C387.184 56.771 386.22 59.1067 386.221 61.5414C386.223 63.9761 387.192 66.3103 388.913 68.0306C390.635 69.7508 392.969 70.7162 395.402 70.7144C397.835 70.7125 400.167 69.7435 401.886 68.0206C403.605 66.2977 404.57 63.962 404.568 61.5274C404.566 59.0927 403.598 56.7585 401.876 55.0382C400.155 53.3179 397.821 52.3525 395.388 52.3544ZM401.003 61.533C401.004 63.023 400.413 64.4522 399.36 65.506C398.839 66.0279 398.22 66.4419 397.539 66.7244C396.858 67.0069 396.128 67.1524 395.391 67.1526C394.653 67.1527 393.923 67.0076 393.242 66.7254C392.561 66.4433 391.942 66.0296 391.42 65.508C390.367 64.4547 389.775 63.0258 389.775 61.5358C389.775 60.0454 390.366 58.6159 391.419 57.5617C392.472 56.5076 393.9 55.9152 395.389 55.9148C396.878 55.9144 398.307 56.5061 399.36 57.5597C400.414 58.6134 401.003 60.0426 401.003 61.533Z" fill="white"/>
<path d="M257.949 66.9894C257.229 67.0058 256.513 66.8781 255.843 66.6137C255.174 66.3494 254.563 65.9537 254.048 65.4499C253.533 64.9462 253.124 64.3445 252.845 63.6803C252.565 63.0161 252.421 62.3027 252.421 61.582C252.421 60.8614 252.565 60.148 252.845 59.4837C253.124 58.8195 253.533 58.2179 254.048 57.7141C254.563 57.2104 255.174 56.8147 255.843 56.5503C256.513 56.286 257.229 56.1583 257.949 56.1747C258.753 56.1747 259.531 56.3602 260.228 56.6863V52.5201C258.851 52.1762 257.415 52.1507 256.028 52.4454C254.64 52.7402 253.338 53.3474 252.22 54.2211C251.102 55.0948 250.198 56.2119 249.576 57.4876C248.954 58.7633 248.631 60.164 248.631 61.5834C248.631 63.0028 248.954 64.4036 249.576 65.6793C250.198 66.955 251.102 68.0721 252.22 68.9458C253.338 69.8194 254.64 70.4267 256.028 70.7214C257.415 71.0162 258.851 70.9906 260.228 70.6467V66.4805C259.514 66.8135 258.737 66.9871 257.949 66.9894Z" fill="white"/>
<path d="M383.893 66.9894C383.083 66.9912 382.284 66.8111 381.553 66.4621C380.823 66.1132 380.18 65.6044 379.672 64.9734C379.165 64.3424 378.805 63.6053 378.62 62.8166C378.436 62.0279 378.431 61.2078 378.605 60.4168C378.78 59.6259 379.13 58.8843 379.63 58.2469C380.129 57.6096 380.766 57.0927 381.492 56.7346C382.218 56.3764 383.015 56.1862 383.824 56.1778C384.634 56.1694 385.435 56.3432 386.168 56.6863V52.5201C384.792 52.1762 383.356 52.1507 381.968 52.4454C380.581 52.7402 379.278 53.3474 378.161 54.2211C377.043 55.0948 376.139 56.2119 375.517 57.4876C374.895 58.7633 374.572 60.164 374.572 61.5834C374.572 63.0028 374.895 64.4036 375.517 65.6793C376.139 66.955 377.043 68.0721 378.161 68.9458C379.278 69.8194 380.581 70.4267 381.968 70.7214C383.356 71.0162 384.792 70.9906 386.168 70.6467V66.4805C385.456 66.8141 384.679 66.9878 383.893 66.9894Z" fill="white"/>
<path d="M425.819 59.1237C425.457 59.3851 424.833 59.5172 423.954 59.5172H422.743V55.8992H424.024C424.867 55.8992 425.471 56.0342 425.842 56.3096C426.213 56.602 426.398 57.0855 426.398 57.7602C426.398 58.4124 426.204 58.865 425.819 59.1237ZM429.272 55.1655C428.85 54.3615 428.28 53.7571 427.57 53.3495C427.058 53.0318 426.446 52.8181 425.713 52.7169C425.185 52.6467 424.859 52.5539 423.943 52.5539L421.991 52.5595C421.603 52.5591 421.219 52.6352 420.861 52.7834C420.503 52.9316 420.177 53.1489 419.903 53.4231C419.629 53.6972 419.411 54.0227 419.263 54.381C419.114 54.7393 419.038 55.1234 419.038 55.5113L419.077 70.4275H422.76L422.743 63.0144H423.965C425.774 63.0144 427.218 62.5083 428.311 61.5019C429.39 60.5264 429.935 59.2698 429.935 57.7209C429.935 56.8213 429.71 55.9667 429.272 55.1655Z" fill="white"/>
<path d="M347.733 63.5289L347.652 52.6383H351.506L351.492 67.7373C351.492 69.2075 350.332 70.54 348.862 70.54C347.772 70.54 346.815 69.7866 346.329 68.8561L341.699 59.3824V70.3882H337.848L337.865 54.7861C337.865 53.313 339.025 52.3263 340.485 52.3263C341.581 52.3263 342.435 52.717 343.028 53.8162L347.733 63.5289Z" fill="white"/>
<path d="M169.087 63.4838L170.433 58.4855H170.511L171.854 63.4838H169.087ZM172.857 67.0428L173.725 70.4275H177.829L172.989 54.384C172.658 53.1752 171.761 52.3796 170.511 52.3796H170.433C169.171 52.3796 168.278 53.1752 167.952 54.384L163.112 70.4275H167.208L168.079 67.0428H172.857Z" fill="white"/>
<path d="M313.484 63.4838L314.829 58.4855H314.905L316.254 63.4838H313.484ZM317.254 67.0428L318.122 70.4275H322.226L317.386 54.384C317.051 53.1752 316.161 52.3796 314.914 52.3796H314.829C313.571 52.3796 312.678 53.1752 312.349 54.384L307.506 70.4275H311.607L312.481 67.0428H317.254Z" fill="white"/>
<path d="M162.016 52.5287V55.8993H156.777V59.4752H162.016V62.8317H156.777V66.818H162.016V70.4473H155.626C154.061 70.4473 152.8 69.1794 152.8 67.6164L152.814 55.3624C152.815 54.6108 153.114 53.8905 153.646 53.3593C154.177 52.8281 154.897 52.5294 155.648 52.5287H162.016Z" fill="white"/>
<path d="M306.497 52.5287V55.8993H301.255V59.4752H306.497V62.8317H301.255V66.818H306.497V70.4473H300.104C298.539 70.4473 297.278 69.1794 297.278 67.6164L297.294 55.3624C297.294 53.7937 298.561 52.5287 300.129 52.5287H306.497Z" fill="white"/>
<path d="M431.098 68.0549C431.096 68.703 430.836 69.3238 430.377 69.7808C429.918 70.2378 429.296 70.4937 428.648 70.4922C427.999 70.4952 427.374 70.2403 426.912 69.7835C426.45 69.3266 426.187 68.705 426.182 68.0549C426.182 66.7083 427.292 65.6147 428.648 65.6147C428.969 65.614 429.287 65.6765 429.584 65.7987C429.881 65.921 430.151 66.1005 430.378 66.3271C430.606 66.5537 430.786 66.8229 430.91 67.1193C431.033 67.4158 431.097 67.7337 431.098 68.0549Z" fill="white"/>
<path d="M152.128 70.4388H148.426L144.327 62.4999C144.17 62.2301 143.937 61.8506 143.906 61.4879C143.836 60.698 144.594 59.908 145.381 59.908C145.381 59.908 146.417 59.9361 146.959 59.2699C147.303 58.8823 147.5 58.3874 147.518 57.8699C147.541 57.3105 147.209 56.7229 146.937 56.5346C146.454 56.2085 145.934 56.0735 144.858 56.0735H143.558V70.45H140.125V55.4888C140.125 53.8611 141.451 52.5342 143.074 52.5342H144.513C145.485 52.5342 146.249 52.5736 146.802 52.6495C147.575 52.7591 148.226 52.984 148.766 53.3214C149.516 53.7459 150.12 54.3896 150.566 55.2386C151.03 56.0876 151.204 56.9197 151.204 57.8699C151.204 59.104 150.828 59.908 150.109 60.7907C149.564 61.4457 148.645 61.9012 147.816 62.2807L152.128 70.4388Z" fill="white"/>
<path d="M242.786 70.4388H239.089L234.987 62.4999C234.83 62.2301 234.602 61.8506 234.569 61.4879C234.501 60.698 235.249 59.908 236.044 59.908C236.044 59.908 237.075 59.9361 237.619 59.2699C237.962 58.8818 238.162 58.3875 238.184 57.8699C238.204 57.3105 237.869 56.7229 237.603 56.5346C237.114 56.2085 236.603 56.0735 235.518 56.0735H234.22V70.45H230.788V55.4888C230.788 53.8611 232.108 52.5342 233.746 52.5342H235.178C236.15 52.5342 236.906 52.5736 237.462 52.6495C238.235 52.7591 238.886 52.984 239.431 53.3214C240.181 53.7459 240.783 54.3896 241.229 55.2386C241.69 56.0876 241.875 56.9197 241.875 57.8699C241.875 59.104 241.488 59.908 240.766 60.7907C240.235 61.4457 239.311 61.9012 238.479 62.2807L242.786 70.4388Z" fill="white"/>
<path d="M418.086 70.4388H414.381L410.285 62.4999C410.113 62.2301 409.894 61.8506 409.863 61.4879C409.79 60.698 410.538 59.908 411.333 59.908C411.333 59.908 412.375 59.9361 412.911 59.2699C413.257 58.8831 413.456 58.3881 413.476 57.8699C413.484 57.3105 413.161 56.7229 412.894 56.5346C412.414 56.2085 411.886 56.0735 410.81 56.0735H409.512V70.45H406.082V55.4888C406.082 53.8611 407.391 52.5342 409.032 52.5342H410.47C411.442 52.5342 412.198 52.5736 412.76 52.6495C413.515 52.7591 414.178 52.984 414.718 53.3214C415.494 53.7688 416.122 54.4358 416.521 55.2386C416.976 56.0876 417.159 56.9197 417.159 57.8699C417.159 59.104 416.78 59.908 416.049 60.7907C415.524 61.4457 414.605 61.9012 413.768 62.2807L418.086 70.4388Z" fill="white"/>
<path d="M194.864 65.1621C193.943 66.1066 192.774 66.5817 191.347 66.5817H189.94V56.3518H191.347C192.774 56.3518 193.943 56.8325 194.864 57.7967C195.783 58.761 196.246 60.012 196.246 61.6256C196.246 63.242 195.783 64.2063 194.864 65.1621ZM191.339 70.4499C192.516 70.4499 193.681 70.2179 194.769 69.7671C195.857 69.3163 196.845 68.6555 197.677 67.8225C198.509 66.9895 199.17 66.0006 199.62 64.9123C200.071 63.8239 200.303 62.6574 200.303 61.4794C200.303 60.3014 200.071 59.1349 199.62 58.0465C199.17 56.9582 198.509 55.9693 197.677 55.1363C196.845 54.3033 195.857 53.6425 194.769 53.1917C193.681 52.7409 192.516 52.5089 191.339 52.5089L188.616 52.5173C187.999 52.5173 187.404 52.7459 186.945 53.1591C186.486 53.5722 186.196 54.1407 186.13 54.755V68.2179C186.196 68.8322 186.486 69.4007 186.945 69.8138C187.404 70.227 187.999 70.4556 188.616 70.4556L191.339 70.4499Z" fill="white"/>
<path d="M229.605 52.509H218.93V56.0989H222.478V70.4473H226.06V56.0989H229.605V52.509Z" fill="white"/>
<path d="M330.87 52.509H320.198V56.0989H323.737V70.4473H327.325V56.0989H330.87V52.509Z" fill="white"/>
<path d="M272.526 52.509H261.849V56.0989H265.383V70.4473H268.975V56.0989H272.526V52.509Z" fill="white"/>
<path d="M365.22 67.6163V59.1743H361.38L361.391 66.6296C360.032 66.5271 358.761 65.9157 357.833 64.9175C356.904 63.9192 356.385 62.6073 356.38 61.2433C356.38 60.3349 356.609 59.4412 357.045 58.6447C357.482 57.8483 358.112 57.1748 358.878 56.6867C359.643 56.1986 360.519 55.9115 361.425 55.8519C362.331 55.7924 363.237 55.9624 364.06 56.3462V52.1828C362.683 51.8362 361.244 51.8084 359.855 52.1016C358.465 52.3948 357.161 53.0012 356.04 53.8748C354.92 54.7484 354.014 55.8661 353.39 57.1429C352.766 58.4197 352.442 59.8221 352.441 61.2433C352.441 66.4019 356.624 70.5062 361.782 70.5906C365.217 70.6412 365.22 67.6163 365.22 67.6163Z" fill="white"/>
</g>
</g>
<defs>
<clipPath id="clip0_36_2">
<rect width="435" height="75" fill="white"/>
</clipPath>
</defs>
</svg>
