<svg xmlns="http://www.w3.org/2000/svg" xml:space="preserve" width="1160.8403" height="200" viewBox="0 0 1160.8403 200"><defs><clipPath id="a" clipPathUnits="userSpaceOnUse"><path d="M0 595.276h841.89V0H0Z"/></clipPath></defs><g clip-path="url(#a)" transform="matrix(7.49653 0 0 -7.49653 -2582.71 2322.676)"><path d="M0 0a11.29 11.29 0 0 1 .45 3.167c0 6.359-5.156 11.514-11.512 11.514-6.361 0-11.516-5.155-11.516-11.514 0-1.094.15-2.151.435-3.151z" style="fill:#ed1a2a;fill-opacity:1;fill-rule:nonzero;stroke:none" transform="translate(371.357 295.152)"/><path d="M0 0h-31.626v-2.288h16.906l-10.303-1.693.025-1.973 7.491-.485-2.871-.629-.027-2.216 8.639-1.589.664 2.204-3.124.425 6.639 1.268v2.19l-6.099.338L0-2.225Z" style="fill:#ed1a2a;fill-opacity:1;fill-rule:nonzero;stroke:none" transform="translate(376.147 294.027)"/><path d="M0 0s-2.204.072-2.204 2.086v1.95l3.565.002V5.6h-8.419a.783.783 0 0 1 .046-1.565h2.58V2.086s.022-2.12-2.83-2.12a.783.783 0 1 1 0-1.568s3.303.053 3.942 1.686C-2.723-1.311-.877-1.552.078-1.552h1.395V0Z" style="fill:#231f20;fill-opacity:1;fill-rule:nonzero;stroke:none" transform="translate(420.368 300.156)"/><path d="M0 0a1.108 1.108 0 1 1-2.213 0l-.009-9.914H.006L0 0" style="fill:#231f20;fill-opacity:1;fill-rule:nonzero;stroke:none" transform="translate(425.432 305.156)"/><path d="M0 0s-2.202.072-2.202 2.087v.283h.014l-.004 2.42a1.11 1.11 0 0 1-2.216 0l-.002-.506h-.022V2.087s.02-2.121-2.832-2.121a.783.783 0 0 1 0-1.568s3.201.01 3.838 1.643C-2.828-1.354-.878-1.553.079-1.553h1.395V0Z" style="fill:#231f20;fill-opacity:1;fill-rule:nonzero;stroke:none" transform="translate(492.817 300.168)"/><path d="M0 0h-.883l-.002 1.147a1.109 1.109 0 1 1-2.215 0l-.009-9.952h2.228v7.241h.932c.428.023.768.363.768.781C.819-.35.454 0 0 0" style="fill:#231f20;fill-opacity:1;fill-rule:nonzero;stroke:none" transform="translate(498.552 304.049)"/><path d="m0 0-.883-.001v1.167a1.11 1.11 0 0 1-2.217 0c0-.005-.004-2.111-.004-3.401l-7.598.002-.004 3.138a1.107 1.107 0 1 1-2.214 0l-.012-3.532h.003v-.038c0-.591.462-1.073 1.045-1.105v-.031l1.55.001c.003-1.506.005-3.925.005-3.929 0-.572.432-1.042.982-1.103l.002-.02 8.693.002v1.562h-7.462c.004.809.004 2.366.008 3.488l5.652.001v.021H-.88s0 1.214-.003 2.215l.933-.003c.429.024.769.364.769.782C.819-.352.452 0 0 0" style="fill:#231f20;fill-opacity:1;fill-rule:nonzero;stroke:none" transform="translate(454.498 304.068)"/><path d="m0 0-.005 10.052a1.109 1.109 0 0 1-2.216 0v-.528h-2.267c-.432-.022-.771-.362-.771-.78 0-.432.367-.783.817-.783l2.218.001v-.998l-2.264.002c-.432-.026-.771-.365-.771-.783 0-.433.367-.784.817-.784l2.216.001V3.984h-8.485c-.431-.023-.77-.364-.77-.78 0-.434.366-.784.819-.784l8.436.002C-2.229 1.067-2.229 0-2.229 0Z" style="fill:#231f20;fill-opacity:1;fill-rule:nonzero;stroke:none" transform="translate(439.724 295.121)"/><path d="M0 0c-.887 0-1.605.735-1.605 1.64 0 .904.718 1.639 1.605 1.639.888 0 1.607-.735 1.607-1.639C1.607.735.888 0 0 0m.034 4.839c-1.987 0-3.599-1.433-3.599-3.199 0-1.767 1.612-3.197 3.599-3.197 1.989 0 3.597 1.43 3.597 3.197 0 1.766-1.608 3.199-3.597 3.199" style="fill:#231f20;fill-opacity:1;fill-rule:nonzero;stroke:none" transform="translate(430.61 301.2)"/><path d="M0 0c-.92 0-1.666.699-1.666 1.559 0 .859.746 1.559 1.666 1.559.921 0 1.668-.7 1.668-1.559C1.668.699.921 0 0 0m4.332 7.719-.887-.001v1.126a1.108 1.108 0 0 1-2.215 0c0-.007-.002-2.761-.007-4.408a3.814 3.814 0 0 1-1.678.155c.094.163.147.351.147.554a.176.176 0 0 1-.004.038h.004l-.005 3.46a1.108 1.108 0 0 1-2.216 0c0-.007-.005-2.222-.005-3.085a.936.936 0 0 1-.185.02l-3.899-.002v1.028h3.027c.429.023.769.364.769.782 0 .432-.366.782-.817.782l-2.982-.001v.46a1.108 1.108 0 1 1-2.217.001l-.009-3.459h.004c-.004-.013-.004-.024-.004-.038 0-.611.499-1.108 1.111-1.108l.816-.003v-.007h4.25a.585.585 0 0 1 .141.021h.531c-.857-.557-1.416-1.457-1.416-2.475 0-1.692 1.546-3.064 3.449-3.064 1.902 0 3.447 1.372 3.447 3.064 0 .152-.013.304-.04.45l.009-.002-.002 4.147h.933c.426.025.768.365.768.782 0 .433-.369.783-.818.783" style="fill:#231f20;fill-opacity:1;fill-rule:nonzero;stroke:none" transform="translate(465.073 296.352)"/><path d="M0 0c-.95 0-1.719.729-1.719 1.627 0 .899.769 1.628 1.719 1.628.946 0 1.717-.729 1.717-1.628C1.717.729.946 0 0 0m6.775 4.693H5.729c.033.102.048.208.048.32l.011 3.316h-.002v.038c0 .591-.464 1.074-1.047 1.106v.029c-.034 0-4.098 0-6.835-.002v.012l-3.069.001c-.431-.025-.773-.365-.773-.782 0-.433.368-.784.82-.784l.687.001v-.01h7.992l.002-2.925c0-.112.017-.218.048-.32H.465c0 .652-.003 1.446-.003 1.452a1.108 1.108 0 0 1-2.216 0l-.003-1.452h-4.565c-.429-.024-.769-.364-.769-.781 0-.433.366-.784.82-.784l3.296.001a2.81 2.81 0 0 1-.441-1.502c0-1.692 1.543-3.065 3.45-3.065 1.901 0 3.446 1.373 3.446 3.065a2.8 2.8 0 0 1-.444 1.503l3.739.001z" style="fill:#231f20;fill-opacity:1;fill-rule:nonzero;stroke:none" transform="translate(477.296 296.363)"/><path d="M0 0v1.528h-.83v2.155c0 .8-.65 1.449-1.453 1.449l-10.145.002a.762.762 0 0 1-.763-.763c0-.424.338-.767.763-.767h9.432V1.528h-10.08a.763.763 0 1 1 0-1.528h5.039v-1.371h-4.391a.763.763 0 0 1-.763-.765.76.76 0 0 1 .763-.764h9.432v-2.631h2.168L-.83-2.823c0 .801-.65 1.452-1.453 1.452h-3.503V0Z" style="fill:#231f20;fill-opacity:1;fill-rule:nonzero;stroke:none" transform="translate(411.567 300.676)"/><path d="M0 0c-.913 0-1.655.812-1.655 1.814 0 1.001.742 1.815 1.655 1.815.911 0 1.65-.814 1.65-1.815C1.65.812.911 0 0 0m9.285 2.097h-.969l.009 2.988a1.19 1.19 0 0 1-1.188 1.117A1.2 1.2 0 0 1 5.94 5.085V-3.394l-6.991.005.003 1.196c0 .3-.116.57-.299.781A3.96 3.96 0 0 1 0-1.649c2.037 0 3.691 1.524 3.691 3.403 0 .658-.207 1.268-.556 1.789h1.98v1.602H1.182c-.061 0-.094 0-.161.002v.349a1.082 1.082 0 0 1-2.165 0v-.351l-3.049-.002c-.413-.025-.741-.392-.741-.81 0-.433.352-.783.784-.783l1.015-.004a3.202 3.202 0 0 1-.558-1.792c0-1.141.611-2.147 1.545-2.764-.034.002-.063.009-.093.009a1.194 1.194 0 0 1-1.195-1.192v-1.761a1.19 1.19 0 0 1 1.16-.937c.077 0 .152.008.223.002H8.298L8.314.508l.971.002a.793.793 0 0 1 0 1.587" style="fill:#231f20;fill-opacity:1;fill-rule:nonzero;stroke:none" transform="translate(387.17 300.106)"/><path d="M0 0v6.37h1.345V3.39l1.921 2.988h1.577L2.765 3.244 4.886 0H3.274L1.345 3.092V0Z" style="fill:#231f20;fill-opacity:1;fill-rule:nonzero;stroke:none" transform="translate(383.031 284.777)"/><path d="M416.308 291.152h1.372v-6.375h-1.372zM431.27 291.152h1.366v-6.375h-1.366zM462.718 291.152h1.369v-6.375h-1.369z" style="fill:#231f20;fill-opacity:1;fill-rule:nonzero;stroke:none"/><path d="M0 0v-2.194h-2.073V0h-1.368v-6.375h1.368v2.812H0v-2.812h1.369V0Z" style="fill:#231f20;fill-opacity:1;fill-rule:nonzero;stroke:none" transform="translate(448.202 291.152)"/><path d="M0 0c-.393.178-.793.328-1.271.361-.425.031-1.004-.049-1.038-.708C-2.363-1.475.439-.866.375-3.182.342-4.523-.695-5.109-1.948-5.109c-.675 0-1.019.066-1.591.331l.044 1.399c.429-.242.979-.412 1.466-.412.47 0 1.007.067 1.088.66.172 1.23-2.702.428-2.695 2.757.002 1.458 1.074 1.99 2.169 1.99.534 0 1.062-.222 1.513-.381z" style="fill:#231f20;fill-opacity:1;fill-rule:nonzero;stroke:none" transform="translate(421.99 289.746)"/><path d="M0 0a3.266 3.266 0 1 1 .003-6.531A3.266 3.266 0 0 1 0 0m2-3.265a1.997 1.997 0 1 0-3.997 0 1.998 1.998 0 1 0 3.997 0" style="fill:#231f20;fill-opacity:1;fill-rule:nonzero;stroke:none" transform="translate(390.644 291.21)"/><path d="M0 0a3.265 3.265 0 1 1 .005-6.531A3.265 3.265 0 0 1 0 0m1.999-3.265a1.998 1.998 0 1 0-3.997-.001A1.998 1.998 0 0 0 2-3.265" style="fill:#231f20;fill-opacity:1;fill-rule:nonzero;stroke:none" transform="translate(485.27 291.21)"/><path d="M0 0a1.924 1.924 0 1 0 0 3.847c.286 0 .563-.066.811-.182v1.482a3.323 3.323 0 1 1 0-6.448V.181A1.932 1.932 0 0 0 0 0" style="fill:#231f20;fill-opacity:1;fill-rule:nonzero;stroke:none" transform="translate(436.345 286.004)"/><path d="M0 0a1.923 1.923 0 1 0 .81 3.665v1.482a3.323 3.323 0 1 1 0-6.448V.181A1.92 1.92 0 0 0 0 0" style="fill:#231f20;fill-opacity:1;fill-rule:nonzero;stroke:none" transform="translate(481.178 286.004)"/><path d="M0 0c-.129-.093-.351-.14-.664-.14h-.431v1.287h.456c.3 0 .515-.048.647-.146C.14.897.206.725.206.485.206.253.137.092 0 0m1.229 1.408c-.15.286-.353.501-.606.646-.182.113-.4.189-.661.225-.188.025-.304.058-.63.058l-.695-.002a1.05 1.05 0 0 1-1.051-1.05l.014-5.306h1.311l-.006 2.637h.435c.644 0 1.158.18 1.547.538.384.347.578.794.578 1.345 0 .32-.08.624-.236.909" style="fill:#231f20;fill-opacity:1;fill-rule:nonzero;stroke:none" transform="translate(496.103 288.802)"/><path d="m0 0-.029 3.874h1.372l-.005-5.371c0-.523-.413-.997-.936-.997-.388 0-.729.268-.902.599l-1.648 3.37V-2.44h-1.371l.006 5.55c0 .524.413.875.933.875.39 0 .694-.139.905-.53z" style="fill:#231f20;fill-opacity:1;fill-rule:nonzero;stroke:none" transform="translate(468.306 287.235)"/><path d="m0 0 .479 1.778h.028L.985 0Zm1.342-1.266.309-1.204h1.461L1.389 3.237c-.118.43-.437.713-.882.713H.479c-.449 0-.767-.283-.883-.713L-2.127-2.47h1.458l.31 1.204z" style="fill:#231f20;fill-opacity:1;fill-rule:nonzero;stroke:none" transform="translate(404.712 287.251)"/><path d="m0 0 .479 1.778h.027L.986 0Zm1.342-1.266.309-1.204h1.461L1.389 3.237c-.119.43-.436.713-.88.713h-.03c-.448 0-.766-.283-.883-.713L-2.128-2.47h1.46l.311 1.204z" style="fill:#231f20;fill-opacity:1;fill-rule:nonzero;stroke:none" transform="translate(456.114 287.251)"/><path d="M0 0v-1.199h-1.865v-1.272H0v-1.194h-1.865v-1.418H0v-1.291h-2.275c-.557 0-1.006.451-1.006 1.007l.005 4.359A1.01 1.01 0 0 0-2.267 0Z" style="fill:#231f20;fill-opacity:1;fill-rule:nonzero;stroke:none" transform="translate(402.195 291.148)"/><path d="M0 0v-1.199h-1.866v-1.272H0v-1.194h-1.866v-1.418H0v-1.291h-2.276c-.557 0-1.006.451-1.006 1.007l.006 4.359C-3.276-.45-2.825 0-2.267 0Z" style="fill:#231f20;fill-opacity:1;fill-rule:nonzero;stroke:none" transform="translate(453.627 291.148)"/><path d="M0 0a.87.87 0 0 0-.872-.867A.874.874 0 0 0-1.75 0c0 .479.395.868.878.868A.87.87 0 0 0 0 0" style="fill:#231f20;fill-opacity:1;fill-rule:nonzero;stroke:none" transform="translate(497.982 285.625)"/><path d="M0 0h-1.318l-1.459 2.824c-.056.096-.139.231-.15.36-.025.281.245.562.525.562 0 0 .369-.01.562.227a.793.793 0 0 1 .199.498c.008.199-.11.408-.207.475-.172.116-.357.164-.74.164h-.463V-.004h-1.222v5.322c0 .579.472 1.051 1.05 1.051h.512c.346 0 .618-.014.815-.041.275-.039.507-.119.699-.239.267-.151.482-.38.641-.682.165-.302.227-.598.227-.936 0-.439-.134-.725-.39-1.039-.194-.233-.521-.395-.816-.53Z" style="fill:#231f20;fill-opacity:1;fill-rule:nonzero;stroke:none" transform="translate(398.675 284.777)"/><path d="M0 0h-1.316l-1.46 2.824c-.056.096-.137.231-.149.36-.024.281.242.562.525.562 0 0 .367-.01.561.227a.804.804 0 0 1 .201.498c.007.199-.112.408-.207.475-.174.116-.356.164-.742.164h-.462V-.004h-1.222v5.322c0 .579.47 1.051 1.053 1.051h.51c.346 0 .615-.014.813-.041.275-.039.507-.119.701-.239.267-.151.481-.38.64-.682.164-.302.23-.598.23-.936 0-.439-.138-.725-.395-1.039-.189-.233-.518-.395-.814-.53z" style="fill:#231f20;fill-opacity:1;fill-rule:nonzero;stroke:none" transform="translate(430.947 284.777)"/><path d="M0 0h-1.319l-1.458 2.824c-.061.096-.139.231-.15.36-.026.281.24.562.523.562 0 0 .371-.01.562.227a.793.793 0 0 1 .201.498c.003.199-.112.408-.207.475-.171.116-.359.164-.742.164h-.462V-.004h-1.221v5.322c0 .579.466 1.051 1.05 1.051h.512c.346 0 .615-.014.815-.041.269-.039.505-.119.697-.239a1.62 1.62 0 0 0 .642-.682c.162-.302.227-.598.227-.936 0-.439-.135-.725-.395-1.039-.187-.233-.514-.395-.812-.53Z" style="fill:#231f20;fill-opacity:1;fill-rule:nonzero;stroke:none" transform="translate(493.35 284.777)"/><path d="M0 0c-.328-.336-.744-.505-1.252-.505h-.501v3.639h.501c.508 0 .924-.171 1.252-.514.327-.343.492-.788.492-1.362C.492.683.327.34 0 0m-1.255-1.881a3.19 3.19 0 1 1 0 6.382l-.969-.003a.89.89 0 0 1-.885-.796v-4.789a.89.89 0 0 1 .885-.796z" style="fill:#231f20;fill-opacity:1;fill-rule:nonzero;stroke:none" transform="translate(413.888 286.654)"/><path d="M0 0h-3.8v-1.277h1.263v-5.104h1.275v5.104H0Z" style="fill:#231f20;fill-opacity:1;fill-rule:nonzero;stroke:none" transform="translate(426.255 291.155)"/><path d="M0 0h-3.799v-1.277h1.26v-5.104h1.277v5.104H0Z" style="fill:#231f20;fill-opacity:1;fill-rule:nonzero;stroke:none" transform="translate(462.303 291.155)"/><path d="M0 0h-3.801v-1.277h1.258v-5.104h1.279v5.104H0Z" style="fill:#231f20;fill-opacity:1;fill-rule:nonzero;stroke:none" transform="translate(441.534 291.155)"/><path d="M0 0v3.003h-1.367l.004-2.652a1.929 1.929 0 0 0-1.784 1.916A1.922 1.922 0 0 0-.413 4.009V5.49a3.325 3.325 0 0 1-4.136-3.223c0-1.835 1.489-3.295 3.325-3.325C-.001-1.076 0 0 0 0" style="fill:#231f20;fill-opacity:1;fill-rule:nonzero;stroke:none" transform="translate(474.531 285.781)"/></g></svg>